<svg xmlns="http://www.w3.org/2000/svg" viewBox="0 0 451.37 158.17"><path d="M20.25 126.19c-.01-.01-.03-.01-.03-.03-.54-.52-.55-1.38-.03-1.92l15.35-15.82a1.35 1.35 0 0 1 1.71-.19c6.87 4.48 12.45 6.73 16.74 6.73 13.81 0 24.99-11.22 24.99-25.07l.08-57.01c0-.75.6-1.36 1.35-1.36h21.48c.75 0 1.36.6 1.36 1.36l-.07 57.01c0 27.25-22.01 49.34-49.18 49.34-10.7 0-20.87-3.15-29.22-9.23-1.13-.81-2.63-2.08-4.53-3.81zm155.99-59.58l-11.73-18.08c-.4-.62-.24-1.45.38-1.86l28.51-19.15c2.04-1.38 4.43-2.11 6.89-2.12 6.94-.02 12.59 5.69 12.61 12.76l.22 53.28c0 27.12-21.48 48.97-47.97 48.97-26.56 0-48.09-21.91-48.09-48.93l-.02-58.66c0-.75.6-1.36 1.36-1.36h.01l21.17.11c.74.01 1.34.61 1.35 1.36l.1 58.55c0 13.56 10.8 24.54 24.12 24.54 13.26 0 24-10.94 24-24.42 0-.03-.04-7.03-.14-31.92L178.13 67c-.62.42-1.46.25-1.88-.38 0 0-.01 0-.01-.01zm48.3-34.32a6.78 6.78 0 0 1 6.78-6.78c1.73 0 3.4.66 4.66 1.86l8.25 7.8c7.95-5.96 17.77-9.49 28.4-9.49 26.56 0 48.08 21.91 48.08 48.93l.03 58.66c0 .74-.61 1.36-1.36 1.36h-.01l-21.17-.11c-.74-.01-1.34-.61-1.34-1.36l-.11-58.55c0-13.56-10.8-24.54-24.12-24.54-13.26 0-24.01 10.93-24.01 24.42l.15 31.23 10.88-7.32c.62-.42 1.46-.25 1.88.37 0 .01.01.01.01.02l11.72 18.07c.4.62.23 1.45-.38 1.86l-28.51 19.15a12.471 12.471 0 0 1-6.89 2.13c-6.95.02-12.93-5.77-12.95-12.85V32.29zm156.4-6.89c26.38 0 47.77 21.64 47.77 48.34v18.53c0 26.7-21.39 48.34-47.77 48.34s-47.77-21.64-47.77-48.34V73.74c0-26.7 21.39-48.34 47.77-48.34zm0 24.17c-13.19 0-23.89 10.82-23.89 24.17v18.53c0 13.35 10.7 24.17 23.89 24.17 13.19 0 23.89-10.82 23.89-24.17V73.74c0-13.35-10.7-24.17-23.89-24.17" fill-rule="evenodd" clip-rule="evenodd" fill="#fff"/></svg>